<?xml version="1.0" encoding="iso-8859-1"?>
<!-- Generator: Adobe Illustrator 16.0.0, SVG Export Plug-In . SVG Version: 6.00 Build 0)  -->
<!DOCTYPE svg PUBLIC "-//W3C//DTD SVG 1.1//EN" "http://www.w3.org/Graphics/SVG/1.1/DTD/svg11.dtd">
<svg version="1.1" id="Capa_1" xmlns="http://www.w3.org/2000/svg" xmlns:xlink="http://www.w3.org/1999/xlink" x="0px" y="0px"
	 width="407.533px" height="407.533px" viewBox="0 0 407.533 407.533" style="enable-background:new 0 0 407.533 407.533;"
	 xml:space="preserve">
<g>
	<g>
		<path fill="#ffbc6b" d="M203.764,250.683L30.997,84.596c1.366-0.171,2.747-0.264,4.131-0.264h337.253c1.388,0,2.774,0.093,4.132,0.264
			L203.764,250.683z"/>
		<path fill="#ffbc6b" d="M105.834,203.767L3.197,302.432C1.075,297.91,0,293.059,0,288.074V119.454c0-4.987,1.075-9.851,3.197-14.364
			L105.834,203.767z"/>
		<path fill="#ffbc6b" d="M130.4,227.378l61.576,59.195c3.176,3.062,7.383,4.743,11.788,4.743c4.419,0,8.602-1.681,11.796-4.743l61.562-59.195
			l99.403,95.561c-1.369,0.174-2.75,0.264-4.131,0.264H35.128c-1.384,0-2.747-0.09-4.131-0.264L130.4,227.378z"/>
		<path fill="#ffbc6b" d="M301.681,203.767l102.634-98.677c2.126,4.513,3.219,9.377,3.219,14.364v168.621c0,4.984-1.093,9.836-3.219,14.357
			L301.681,203.767z"/>
	</g>
</g>
</svg>
